<svg width="100" height="100" viewBox="0 0 100 100" fill="none" xmlns="http://www.w3.org/2000/svg">
<path d="M90 99.5H85.5V0.5H90C95.2467 0.5 99.5 4.75329 99.5 10V36.9722C99.5 41.8204 97.077 46.3477 93.0432 49.037L92.2227 49.584L91.5986 50L92.2227 50.416L93.0432 50.963C97.077 53.6523 99.5 58.1796 99.5 63.0278V90C99.5 95.2467 95.2467 99.5 90 99.5Z" fill="#F561AB" stroke="#491D33"/>
<path d="M62.9851 80.1213L69.5 54.0616V99.5H55.5V54.0616L62.0149 80.1213H62.9851Z" fill="#F561AB" stroke="#491D33"/>
<path d="M55.6404 0.5L62.5 27.9384L69.3596 0.5H55.6404Z" fill="#F561AB" stroke="#491D33"/>
<path d="M25 14.5H0.5V10C0.5 4.75329 4.75329 0.5 10 0.5H39.5V99.5H10C4.75329 99.5 0.5 95.2467 0.5 90V75.5H14.5V80C14.5 83.0376 16.9624 85.5 20 85.5H25H25.5V85V15V14.5H25Z" fill="#695FEC" stroke="#1E1C45"/>
</svg>
