<svg width="96" height="96" viewBox="0 0 96 96" fill="white" xmlns="http://www.w3.org/2000/svg">
<path fill-rule="evenodd" clip-rule="evenodd" d="M7 0C3.13401 0 0 3.13401 0 7V89C0 92.866 3.13401 96 7 96H89C92.866 96 96 92.866 96 89V7C96 3.13401 92.866 0 89 0H7ZM14 36V82H28V36H14ZM29 21C29 25.4183 25.4183 29 21 29C16.5817 29 13 25.4183 13 21C13 16.5817 16.5817 13 21 13C25.4183 13 29 16.5817 29 21ZM48.5 36.5H36.5V81.5H49.5V55.5C52.5 41.5 69.5 45.5 68.5 55.5V81.5H81.5V54.5C82.5 35 58.5 29 48.5 44V36.5Z" />
</svg>
